<svg width="286" height="106" viewBox="0 0 286 106" fill="none" xmlns="http://www.w3.org/2000/svg">
<path d="M24.5624 38.4764C24.4356 33.5905 24.8903 28.736 25.9005 24.19C26.9107 19.6441 28.4566 15.4957 30.4499 11.9819C32.4433 8.46798 34.8451 5.65738 37.5181 3.71054C40.1912 1.76369 43.0832 0.718722 46.029 0.635295C48.9748 0.551867 51.9168 1.43162 54.6869 3.22431C57.457 5.017 60.001 7.68753 62.1737 11.0834C64.3463 14.4793 66.1051 18.5341 67.3495 23.0162C68.594 27.4983 69.2997 32.3199 69.4265 37.2059L66.6471 37.2846C66.536 33.004 65.9177 28.7798 64.8275 24.853C63.7372 20.9263 62.1964 17.3739 60.2929 14.3988C58.3894 11.4237 56.1606 9.08405 53.7338 7.51348C51.3069 5.9429 48.7295 5.17216 46.1486 5.24525C43.5678 5.31834 41.0342 6.23383 38.6923 7.93946C36.3504 9.64508 34.2462 12.1074 32.4999 15.1859C30.7535 18.2644 29.3991 21.8988 28.5141 25.8814C27.6291 29.8641 27.2308 34.1172 27.3418 38.3977L24.5624 38.4764Z" fill="#B71616"/>
<path d="M26.4132 39.9265C26.2865 35.0406 26.7411 30.1861 27.7513 25.6401C28.7615 21.0942 30.3074 16.9458 32.3008 13.4319C34.2941 9.91806 36.6959 7.10747 39.369 5.16063C42.042 3.21378 44.934 2.16881 47.8799 2.08538C50.8257 2.00196 53.7676 2.88171 56.5377 4.6744C59.3078 6.46709 61.8518 9.13762 64.0245 12.5335C66.1971 15.9294 67.9559 19.9842 69.2004 24.4663C70.4448 28.9483 71.1506 33.77 71.2774 38.656L68.4979 38.7347C68.3869 34.4541 67.7685 30.2299 66.6783 26.3031C65.588 22.3764 64.0472 18.824 62.1437 15.8489C60.2403 12.8738 58.0115 10.5341 55.5846 8.96356C53.1577 7.39299 50.5803 6.62225 47.9995 6.69534C45.4187 6.76843 42.885 7.68392 40.5431 9.38955C38.2013 11.0952 36.0971 13.5575 34.3507 16.636C32.6043 19.7145 31.25 23.3488 30.3649 27.3315C29.4799 31.3142 29.0816 35.5673 29.1927 39.8478L26.4132 39.9265Z" fill="#B71616" fill-opacity="0.55"/>
<path d="M4.30735 41.1524C2.24269 34.3928 7.65125 27.6829 14.6951 28.2653L44.9941 30.7703C45.5345 30.8149 46.0775 30.8156 46.618 30.7722L79.0593 28.169C85.8948 27.6205 91.2417 33.9581 89.5502 40.6036L77.5667 87.6838C76.4388 92.1153 72.4485 95.2172 67.8757 95.2172H28.2226C23.8249 95.2172 19.9434 92.3442 18.6587 88.1383L4.30735 41.1524Z" fill="#A4D027"/>
<path d="M8.96484 44.9508C6.88676 38.1897 12.2929 31.4672 19.3424 32.0464L45.5241 34.1975C46.0611 34.2416 46.6008 34.2422 47.1378 34.1994L75.3426 31.9503C82.1825 31.4048 87.5273 37.7528 85.8248 44.3999L75.4274 84.9934C74.2942 89.4177 70.3074 92.5121 65.7402 92.5121H30.9714C26.5802 92.5121 22.7028 89.6475 21.4127 85.4501L8.96484 44.9508Z" fill="white"/>
<path d="M12.1703 47.1025C10.1069 40.343 15.5157 33.6342 22.559 34.2169L45.5669 36.1201C46.1075 36.1649 46.6509 36.1655 47.1916 36.1221L72.1205 34.1206C78.9555 33.5718 84.3027 39.9085 82.6121 46.5539L73.388 82.8135C72.2606 87.2456 68.27 90.3481 63.6967 90.3481H32.7747C28.3765 90.3481 24.4946 87.4744 23.2104 83.2678L12.1703 47.1025Z" fill="#A4D027"/>
<path d="M46.751 49.9746C46.751 50.6425 46.5693 51.2695 46.2061 51.8554C45.8545 52.4414 45.4092 52.9804 44.8701 53.4726C44.3428 53.9531 43.7627 54.3808 43.1299 54.7558C42.5088 55.1191 41.9287 55.4062 41.3896 55.6172C40.8154 55.8398 40.2295 56.0215 39.6318 56.1621C39.0459 56.291 38.4541 56.373 37.8564 56.4082L37.5049 55.7929C38.0088 55.664 38.5244 55.459 39.0518 55.1777C39.5791 54.8965 40.0596 54.5566 40.4932 54.1582C40.9268 53.748 41.2783 53.291 41.5478 52.7871C41.8291 52.2832 41.9697 51.7383 41.9697 51.1523C41.9697 50.7422 41.8936 50.3789 41.7412 50.0625C41.6006 49.7461 41.4014 49.4824 41.1436 49.2715C40.8975 49.0488 40.6045 48.8847 40.2646 48.7793C39.9248 48.6621 39.5557 48.6035 39.1572 48.6035C38.1846 48.6035 37.3174 48.7851 36.5557 49.1484C35.8057 49.5117 35.1436 50.0039 34.5693 50.625C33.9951 51.2343 33.5088 51.9375 33.1103 52.7343C32.7119 53.5312 32.3838 54.3691 32.126 55.248C31.8799 56.1152 31.6982 56.9941 31.5811 57.8847C31.4756 58.7754 31.4228 59.6133 31.4228 60.3984C31.4228 60.9843 31.4521 61.6054 31.5107 62.2617C31.5811 62.9062 31.6982 63.5508 31.8623 64.1953C32.0264 64.8398 32.2432 65.455 32.5127 66.041C32.7822 66.6269 33.1221 67.1425 33.5322 67.5879C33.9424 68.0332 34.4228 68.3906 34.9736 68.6601C35.5361 68.9179 36.1865 69.0468 36.9248 69.0468C37.5576 69.0468 38.1494 68.9297 38.7002 68.6953C39.251 68.4609 39.7549 68.1504 40.2119 67.7636C40.6689 67.3769 41.0732 66.9258 41.4248 66.4101C41.7881 65.8945 42.0928 65.3554 42.3389 64.7929C42.5967 64.2304 42.79 63.6621 42.9189 63.0879C43.0478 62.5136 43.1123 61.9687 43.1123 61.4531L46.751 60.1523V74.5488L43.1123 75.8496V64.8984C42.8896 65.8593 42.5146 66.7851 41.9873 67.6758C41.4717 68.5664 40.8623 69.3574 40.1592 70.0488C39.4561 70.7285 38.6885 71.2793 37.8564 71.7011C37.0361 72.1113 36.21 72.3164 35.3779 72.3164C34.1123 72.3164 32.9639 72.0586 31.9326 71.5429C30.9014 71.0156 30.0225 70.3183 29.2959 69.4511C28.5693 68.584 28.0068 67.5879 27.6084 66.4629C27.2217 65.3379 27.0283 64.1718 27.0283 62.9648C27.0283 61.664 27.2041 60.3574 27.5557 59.0449C27.9072 57.7207 28.4053 56.455 29.0498 55.248C29.6943 54.041 30.4678 52.9101 31.3701 51.8554C32.2725 50.8008 33.2686 49.8867 34.3584 49.1133C35.46 48.3398 36.6377 47.7304 37.8916 47.2851C39.1572 46.8398 40.4697 46.6172 41.8291 46.6172C42.333 46.6172 42.8721 46.6758 43.4463 46.7929C44.0322 46.8984 44.5654 47.08 45.0459 47.3379C45.5381 47.5957 45.9424 47.9414 46.2588 48.375C46.5869 48.7968 46.751 49.33 46.751 49.9746Z" fill="white"/>
<path d="M70.5693 64.0722C70.5693 65.2558 70.3232 66.334 69.8311 67.3066C69.3506 68.2793 68.7002 69.1582 67.8799 69.9433C67.0713 70.7168 66.1396 71.3906 65.085 71.9648C64.042 72.539 62.9521 73.0195 61.8154 73.4062C60.6904 73.8047 59.5596 74.1035 58.4228 74.3027C57.2978 74.5136 56.2549 74.6367 55.2939 74.6718L55.0478 73.7929C55.8213 73.6289 56.6416 73.4121 57.5088 73.1425C58.376 72.8847 59.2314 72.5625 60.0752 72.1758C60.9307 71.8008 61.7393 71.3613 62.501 70.8574C63.2744 70.3535 63.9541 69.7793 64.54 69.1347C65.126 68.4785 65.5889 67.7578 65.9287 66.9726C66.2803 66.1758 66.4561 65.2968 66.4561 64.3359C66.4561 63.6093 66.2861 62.9531 65.9463 62.3672C65.6182 61.7695 65.1846 61.2656 64.6455 60.8554C64.1182 60.4336 63.5146 60.1113 62.835 59.8886C62.167 59.6543 61.4932 59.5371 60.8135 59.5371C60.0049 59.5371 59.208 59.6367 58.4228 59.8359C57.6377 60.0234 56.8643 60.2636 56.1025 60.5566L55.8037 59.8359C56.3311 59.6015 56.8877 59.3203 57.4736 58.9922C58.0713 58.664 58.6514 58.3008 59.2139 57.9023C59.7881 57.4922 60.333 57.0468 60.8486 56.5664C61.3643 56.0742 61.8154 55.5527 62.2021 55.0019C62.6006 54.4394 62.917 53.8535 63.1514 53.2441C63.3857 52.623 63.5029 51.9726 63.5029 51.2929C63.5029 50.8593 63.4326 50.4668 63.292 50.1152C63.1631 49.7519 62.9697 49.4414 62.7119 49.1836C62.4541 48.914 62.1436 48.709 61.7803 48.5683C61.4287 48.416 61.0361 48.3398 60.6025 48.3398C59.8994 48.3398 59.2783 48.4922 58.7393 48.7968C58.2119 49.1015 57.749 49.5058 57.3506 50.0097C56.9639 50.5136 56.6357 51.0937 56.3662 51.75C56.1084 52.3945 55.8975 53.0566 55.7334 53.7363C55.5811 54.416 55.4697 55.0898 55.3994 55.7578C55.3291 56.414 55.2939 57.0058 55.2939 57.5332V71.1035L51.6728 72.3867V59.4668C51.6728 58.33 51.8018 57.2226 52.0596 56.1445C52.3174 55.0664 52.6865 54.0468 53.167 53.0859C53.6592 52.1133 54.251 51.2226 54.9424 50.414C55.6455 49.6054 56.4307 48.914 57.2978 48.3398C58.1768 47.7539 59.1318 47.2968 60.1631 46.9687C61.2061 46.6406 62.3076 46.4765 63.4678 46.4765C63.9951 46.4765 64.5049 46.5468 64.9971 46.6875C65.4893 46.8281 65.917 47.0449 66.2803 47.3379C66.6553 47.6308 66.9541 47.9941 67.1768 48.4277C67.3994 48.8613 67.5107 49.3652 67.5107 49.9394C67.5107 50.5605 67.3818 51.1758 67.124 51.7851C66.8779 52.3828 66.5439 52.9687 66.1221 53.5429C65.7002 54.1172 65.2197 54.6679 64.6807 55.1953C64.1416 55.7109 63.5791 56.1914 62.9932 56.6367C62.4189 57.082 61.8447 57.4804 61.2705 57.832C60.6963 58.1836 60.1689 58.4765 59.6885 58.7109C60.8838 58.4297 62.1084 58.289 63.3623 58.289C64.2764 58.289 65.1611 58.4004 66.0166 58.623C66.8838 58.834 67.6514 59.1738 68.3193 59.6425C68.999 60.0996 69.5439 60.6972 69.9541 61.4355C70.3643 62.1621 70.5693 63.041 70.5693 64.0722Z" fill="#B71616"/>
<path d="M116.707 59.9727H122.08C122.873 59.9727 123.693 60 124.541 60.0547C125.389 60.1094 126.216 60.2256 127.022 60.4033C127.829 60.5811 128.595 60.8477 129.319 61.2031C130.044 61.5449 130.673 62.0098 131.206 62.5977C131.753 63.1855 132.184 63.917 132.498 64.792C132.826 65.6533 132.99 66.6924 132.99 67.9092V69.6113C132.99 70.541 132.854 71.3955 132.58 72.1748C132.32 72.9541 131.972 73.6445 131.534 74.2461C131.097 74.834 130.598 75.3262 130.037 75.7227C129.477 76.1055 128.902 76.3652 128.314 76.502V76.666C130.051 76.9805 131.356 77.8076 132.231 79.1475C133.12 80.4736 133.564 82.1758 133.564 84.2539V86.0381C133.564 87.3096 133.421 88.417 133.134 89.3604C132.86 90.29 132.471 91.0898 131.965 91.7598C131.459 92.416 130.857 92.9561 130.16 93.3799C129.463 93.8037 128.697 94.1387 127.863 94.3848C127.029 94.6172 126.141 94.7812 125.197 94.877C124.254 94.959 123.283 95 122.285 95H116.707V59.9727ZM122.941 74.9639C123.652 74.9639 124.302 74.8818 124.89 74.7178C125.478 74.54 125.977 74.2734 126.387 73.918C126.811 73.5488 127.132 73.0771 127.351 72.5029C127.583 71.915 127.699 71.2109 127.699 70.3906V68.9551C127.699 68.1348 127.617 67.4102 127.453 66.7812C127.289 66.1523 127.016 65.6191 126.633 65.1816C126.264 64.7441 125.771 64.416 125.156 64.1973C124.555 63.9648 123.816 63.8486 122.941 63.8486H121.916V74.9639H122.941ZM123.434 91.3086C124.145 91.3086 124.787 91.2197 125.361 91.042C125.949 90.8506 126.448 90.5635 126.858 90.1807C127.282 89.7842 127.604 89.2852 127.822 88.6836C128.055 88.082 128.171 87.3711 128.171 86.5508V83.8232C128.171 83.0029 128.089 82.2783 127.925 81.6494C127.761 81.0068 127.487 80.4736 127.104 80.0498C126.735 79.6123 126.25 79.2842 125.648 79.0654C125.047 78.833 124.309 78.7168 123.434 78.7168H121.916V91.3086H123.434ZM141.768 95.3076C140.893 95.3076 140.113 95.1367 139.43 94.7949C138.76 94.4395 138.192 93.9609 137.728 93.3594C137.263 92.7578 136.907 92.0469 136.661 91.2266C136.429 90.3926 136.312 89.4902 136.312 88.5195C136.312 87.3574 136.456 86.3252 136.743 85.4229C137.03 84.5205 137.447 83.707 137.994 82.9824C138.555 82.2578 139.245 81.6016 140.065 81.0137C140.886 80.4121 141.836 79.8447 142.916 79.3115C143.436 79.0518 144.017 78.792 144.659 78.5322C145.315 78.2588 145.896 78.0264 146.402 77.835V74.1025C146.402 73.5557 146.382 73.0498 146.341 72.585C146.3 72.1064 146.197 71.6963 146.033 71.3545C145.883 70.999 145.65 70.7256 145.336 70.5342C145.021 70.3291 144.591 70.2266 144.044 70.2266C143.675 70.2266 143.312 70.2949 142.957 70.4316C142.615 70.5684 142.308 70.8008 142.034 71.1289C141.774 71.457 141.562 71.8945 141.398 72.4414C141.248 72.9883 141.173 73.665 141.173 74.4717V75.7021H137.215C137.092 75.1689 136.996 74.6836 136.928 74.2461C136.873 73.7949 136.846 73.3506 136.846 72.9131C136.846 71.8604 137.023 70.9307 137.379 70.124C137.748 69.3174 138.254 68.6406 138.896 68.0938C139.553 67.5469 140.332 67.1367 141.234 66.8633C142.137 66.5762 143.128 66.4326 144.208 66.4326C145.616 66.4326 146.785 66.5898 147.715 66.9043C148.645 67.2051 149.383 67.6631 149.93 68.2783C150.49 68.8936 150.88 69.666 151.099 70.5957C151.331 71.5254 151.447 72.6123 151.447 73.8564V95H147.592L147.223 92.5801C146.662 93.3867 145.91 94.043 144.967 94.5488C144.037 95.0547 142.971 95.3076 141.768 95.3076ZM144.064 91.3086C144.502 91.3086 144.926 91.1992 145.336 90.9805C145.76 90.748 146.115 90.4678 146.402 90.1396V81.3008C146.129 81.4102 145.821 81.54 145.479 81.6904C145.138 81.8408 144.769 82.0391 144.372 82.2852C144.003 82.5176 143.641 82.7979 143.285 83.126C142.93 83.4541 142.608 83.8438 142.321 84.2949C142.048 84.7461 141.822 85.2588 141.645 85.833C141.48 86.3936 141.398 87.0225 141.398 87.7197C141.398 88.7998 141.61 89.668 142.034 90.3242C142.458 90.9805 143.135 91.3086 144.064 91.3086ZM155.713 89.0938C155.713 88.4785 155.768 87.8838 155.877 87.3096C156 86.7354 156.116 86.2773 156.226 85.9355H159.876C159.876 86.9609 159.924 87.8223 160.02 88.5195C160.129 89.2031 160.3 89.75 160.532 90.1602C160.765 90.5703 161.072 90.8643 161.455 91.042C161.852 91.2197 162.33 91.3086 162.891 91.3086C163.67 91.3086 164.237 91.0898 164.593 90.6523C164.948 90.2148 165.126 89.709 165.126 89.1348C165.126 88.834 165.085 88.5469 165.003 88.2734C164.921 88 164.805 87.7266 164.654 87.4531C164.504 87.166 164.319 86.8789 164.101 86.5918C163.882 86.3047 163.636 85.9902 163.362 85.6484L159.568 81.1777C159.076 80.5625 158.598 79.9404 158.133 79.3115C157.682 78.6689 157.278 78.0127 156.923 77.3428C156.581 76.6592 156.301 75.9482 156.082 75.21C155.877 74.4717 155.774 73.6924 155.774 72.8721C155.774 71.7783 155.959 70.8281 156.328 70.0215C156.711 69.2148 157.217 68.5449 157.846 68.0117C158.488 67.4785 159.227 67.082 160.061 66.8223C160.895 66.5625 161.776 66.4326 162.706 66.4326C163.731 66.4326 164.654 66.5557 165.475 66.8018C166.295 67.0479 166.999 67.417 167.587 67.9092C168.175 68.4014 168.626 69.0166 168.94 69.7549C169.255 70.4795 169.412 71.3271 169.412 72.2979C169.412 72.9541 169.351 73.5898 169.228 74.2051C169.118 74.8203 169.009 75.3467 168.899 75.7842H165.311C165.297 74.8545 165.256 74.041 165.188 73.3438C165.119 72.6465 164.989 72.0723 164.798 71.6211C164.62 71.1562 164.367 70.8076 164.039 70.5752C163.725 70.3428 163.308 70.2266 162.788 70.2266C162.337 70.2266 161.961 70.3018 161.66 70.4521C161.359 70.5889 161.113 70.7734 160.922 71.0059C160.744 71.2383 160.614 71.498 160.532 71.7852C160.464 72.0723 160.43 72.3662 160.43 72.667C160.43 73.3232 160.587 73.9316 160.901 74.4922C161.216 75.0527 161.633 75.6611 162.152 76.3174L166.295 81.1777C166.596 81.5469 166.944 81.998 167.341 82.5312C167.737 83.0508 168.113 83.6318 168.469 84.2744C168.824 84.9033 169.125 85.5938 169.371 86.3457C169.617 87.0977 169.74 87.8838 169.74 88.7041C169.74 89.7021 169.583 90.6113 169.269 91.4316C168.954 92.2383 168.489 92.9287 167.874 93.5029C167.259 94.0771 166.5 94.5215 165.598 94.8359C164.709 95.1504 163.69 95.3076 162.542 95.3076C161.599 95.3076 160.71 95.2051 159.876 95C159.042 94.7812 158.317 94.4326 157.702 93.9541C157.087 93.4619 156.602 92.8193 156.246 92.0264C155.891 91.2334 155.713 90.2559 155.713 89.0938ZM173.924 57.6963H179.112V79.168H179.276L184.937 66.7607H189.92L183.645 79.6807L190.515 95H185.224L179.276 80.9932H179.112V95H173.924V57.6963ZM199.969 95.3076C198.752 95.3076 197.672 95.082 196.729 94.6309C195.799 94.1797 195.013 93.4756 194.37 92.5186C193.728 91.5615 193.242 90.3379 192.914 88.8477C192.586 87.3438 192.422 85.5391 192.422 83.4336V78.1016C192.422 76.3105 192.552 74.7793 192.812 73.5078C193.085 72.2227 193.434 71.1494 193.857 70.2881C194.295 69.4131 194.794 68.7227 195.354 68.2168C195.929 67.7109 196.517 67.3281 197.118 67.0684C197.72 66.7949 198.314 66.624 198.902 66.5557C199.504 66.4736 200.058 66.4326 200.563 66.4326C201.493 66.4326 202.389 66.5762 203.25 66.8633C204.111 67.1367 204.87 67.6152 205.526 68.2988C206.183 68.9688 206.702 69.8711 207.085 71.0059C207.481 72.1406 207.68 73.5557 207.68 75.251C207.68 75.8252 207.659 76.4062 207.618 76.9941C207.591 77.582 207.55 78.1631 207.495 78.7373C207.44 79.2979 207.365 79.8447 207.27 80.3779C207.188 80.9111 207.099 81.4033 207.003 81.8545H197.631V84.7256C197.631 85.9561 197.679 86.9951 197.774 87.8428C197.87 88.6768 198.027 89.3535 198.246 89.873C198.479 90.3789 198.786 90.748 199.169 90.9805C199.565 91.1992 200.058 91.3086 200.646 91.3086C200.96 91.3086 201.268 91.2471 201.568 91.124C201.869 90.9873 202.129 90.7686 202.348 90.4678C202.58 90.167 202.765 89.7705 202.901 89.2783C203.038 88.7725 203.106 88.1504 203.106 87.4121V86.5303H207.434V87.6172C207.434 90.2969 206.791 92.252 205.506 93.4824C204.234 94.6992 202.389 95.3076 199.969 95.3076ZM202.84 78.3682C202.854 78.2178 202.867 78.0195 202.881 77.7734C202.895 77.5137 202.901 77.2471 202.901 76.9736C202.915 76.7002 202.922 76.4336 202.922 76.1738C202.922 75.9004 202.922 75.668 202.922 75.4766C202.922 73.6172 202.703 72.2773 202.266 71.457C201.828 70.6367 201.179 70.2266 200.317 70.2266C199.866 70.2266 199.47 70.3359 199.128 70.5547C198.786 70.7598 198.506 71.1152 198.287 71.6211C198.068 72.1133 197.904 72.7695 197.795 73.5898C197.686 74.4102 197.631 75.4287 197.631 76.6455V78.3682H202.84ZM212.663 70.4521H210.469V66.7607H213.114L214.16 59.4395H217.852V66.7607H222.363V70.4521H217.852V88.417C217.852 89.0322 217.906 89.5312 218.016 89.9141C218.139 90.2832 218.303 90.5771 218.508 90.7959C218.713 91.001 218.952 91.1377 219.226 91.2061C219.499 91.2744 219.786 91.3086 220.087 91.3086C220.593 91.3086 221.037 91.2471 221.42 91.124C221.816 91.001 222.192 90.8301 222.548 90.6113V93.4824C222.247 93.8516 221.919 94.1523 221.563 94.3848C221.222 94.6172 220.866 94.8086 220.497 94.959C220.128 95.0957 219.752 95.1914 219.369 95.2461C218.986 95.3008 218.61 95.3281 218.241 95.3281C217.517 95.3281 216.819 95.2324 216.149 95.041C215.479 94.8496 214.885 94.4873 214.365 93.9541C213.846 93.4072 213.429 92.6553 213.114 91.6982C212.813 90.7412 212.663 89.4971 212.663 87.9658V70.4521ZM224.824 89.0938C224.824 88.4785 224.879 87.8838 224.988 87.3096C225.111 86.7354 225.228 86.2773 225.337 85.9355H228.987C228.987 86.9609 229.035 87.8223 229.131 88.5195C229.24 89.2031 229.411 89.75 229.644 90.1602C229.876 90.5703 230.184 90.8643 230.566 91.042C230.963 91.2197 231.441 91.3086 232.002 91.3086C232.781 91.3086 233.349 91.0898 233.704 90.6523C234.06 90.2148 234.237 89.709 234.237 89.1348C234.237 88.834 234.196 88.5469 234.114 88.2734C234.032 88 233.916 87.7266 233.766 87.4531C233.615 87.166 233.431 86.8789 233.212 86.5918C232.993 86.3047 232.747 85.9902 232.474 85.6484L228.68 81.1777C228.188 80.5625 227.709 79.9404 227.244 79.3115C226.793 78.6689 226.39 78.0127 226.034 77.3428C225.692 76.6592 225.412 75.9482 225.193 75.21C224.988 74.4717 224.886 73.6924 224.886 72.8721C224.886 71.7783 225.07 70.8281 225.439 70.0215C225.822 69.2148 226.328 68.5449 226.957 68.0117C227.6 67.4785 228.338 67.082 229.172 66.8223C230.006 66.5625 230.888 66.4326 231.817 66.4326C232.843 66.4326 233.766 66.5557 234.586 66.8018C235.406 67.0479 236.11 67.417 236.698 67.9092C237.286 68.4014 237.737 69.0166 238.052 69.7549C238.366 70.4795 238.523 71.3271 238.523 72.2979C238.523 72.9541 238.462 73.5898 238.339 74.2051C238.229 74.8203 238.12 75.3467 238.011 75.7842H234.422C234.408 74.8545 234.367 74.041 234.299 73.3438C234.23 72.6465 234.101 72.0723 233.909 71.6211C233.731 71.1562 233.479 70.8076 233.15 70.5752C232.836 70.3428 232.419 70.2266 231.899 70.2266C231.448 70.2266 231.072 70.3018 230.771 70.4521C230.471 70.5889 230.225 70.7734 230.033 71.0059C229.855 71.2383 229.726 71.498 229.644 71.7852C229.575 72.0723 229.541 72.3662 229.541 72.667C229.541 73.3232 229.698 73.9316 230.013 74.4922C230.327 75.0527 230.744 75.6611 231.264 76.3174L235.406 81.1777C235.707 81.5469 236.056 81.998 236.452 82.5312C236.849 83.0508 237.225 83.6318 237.58 84.2744C237.936 84.9033 238.236 85.5938 238.482 86.3457C238.729 87.0977 238.852 87.8838 238.852 88.7041C238.852 89.7021 238.694 90.6113 238.38 91.4316C238.065 92.2383 237.601 92.9287 236.985 93.5029C236.37 94.0771 235.611 94.5215 234.709 94.8359C233.82 95.1504 232.802 95.3076 231.653 95.3076C230.71 95.3076 229.821 95.2051 228.987 95C228.153 94.7812 227.429 94.4326 226.813 93.9541C226.198 93.4619 225.713 92.8193 225.357 92.0264C225.002 91.2334 224.824 90.2559 224.824 89.0938Z" fill="#B71616"/>
<path d="M111.282 52.3281C110.872 52.3281 110.394 52.2803 109.847 52.1846C109.3 52.1025 108.732 51.918 108.145 51.6309C107.57 51.3438 107.003 50.9404 106.442 50.4209C105.882 49.8877 105.376 49.1904 104.925 48.3291C104.487 47.4541 104.132 46.3877 103.858 45.1299C103.585 43.8584 103.448 42.3477 103.448 40.5977V28.1904C103.448 26.4268 103.592 24.9229 103.879 23.6787C104.166 22.4209 104.549 21.3682 105.027 20.5205C105.506 19.6592 106.053 18.9756 106.668 18.4697C107.297 17.9639 107.946 17.5811 108.616 17.3213C109.286 17.0479 109.949 16.8701 110.605 16.7881C111.262 16.7061 111.87 16.665 112.431 16.665C113.853 16.665 115.049 16.8633 116.02 17.2598C117.004 17.6426 117.797 18.1758 118.398 18.8594C119.014 19.5293 119.451 20.3154 119.711 21.2178C119.984 22.1201 120.121 23.0771 120.121 24.0889C120.121 24.8408 120.073 25.5381 119.978 26.1807C119.896 26.8096 119.779 27.5068 119.629 28.2725H115.384V26.6113C115.384 22.7695 114.352 20.8486 112.287 20.8486C111.727 20.8486 111.241 20.9443 110.831 21.1357C110.421 21.3271 110.079 21.6553 109.806 22.1201C109.532 22.5713 109.327 23.1729 109.19 23.9248C109.067 24.6768 109.006 25.6133 109.006 26.7344V42.6074C109.006 43.7012 109.067 44.6104 109.19 45.335C109.327 46.0596 109.525 46.6406 109.785 47.0781C110.059 47.5156 110.394 47.8301 110.79 48.0215C111.2 48.1992 111.686 48.2881 112.246 48.2881C112.834 48.2881 113.34 48.1377 113.764 47.8369C114.188 47.5225 114.536 47.0986 114.81 46.5654C115.083 46.0322 115.281 45.4033 115.404 44.6787C115.541 43.9541 115.609 43.168 115.609 42.3203V37.7471H112.882V34.2607H120.777V52H117.25L116.676 48.6777C116.006 49.9766 115.233 50.9131 114.358 51.4873C113.497 52.0479 112.472 52.3281 111.282 52.3281ZM125.371 23.7607H129.165L129.616 26.6318C130.19 25.5654 130.847 24.7656 131.585 24.2324C132.337 23.6992 133.103 23.4326 133.882 23.4326C135.372 23.4326 136.473 23.8906 137.184 24.8066C137.895 25.7227 138.25 27.0967 138.25 28.9287C138.25 29.1611 138.229 29.4414 138.188 29.7695C138.161 30.084 138.113 30.4189 138.045 30.7744C137.99 31.1162 137.915 31.4648 137.819 31.8203C137.737 32.1621 137.648 32.4766 137.553 32.7637H133.943V30.1387C133.943 29.5645 133.902 29.0928 133.82 28.7236C133.752 28.3545 133.656 28.0605 133.533 27.8418C133.41 27.6094 133.267 27.4521 133.103 27.3701C132.938 27.2744 132.761 27.2266 132.569 27.2266C132.159 27.2266 131.776 27.3633 131.421 27.6367C131.079 27.8965 130.792 28.2656 130.56 28.7441V52H125.371V23.7607ZM148.647 52.3076C148.046 52.3076 147.431 52.2598 146.802 52.1641C146.187 52.0684 145.585 51.8701 144.997 51.5693C144.423 51.2686 143.876 50.8379 143.356 50.2773C142.851 49.7168 142.406 48.9785 142.023 48.0625C141.641 47.1465 141.34 46.0186 141.121 44.6787C140.902 43.3389 140.793 41.7393 140.793 39.8799V35.4502C140.793 33.6182 140.902 32.0527 141.121 30.7539C141.354 29.4414 141.661 28.3408 142.044 27.4521C142.44 26.5635 142.898 25.8594 143.418 25.3398C143.938 24.8066 144.484 24.4033 145.059 24.1299C145.646 23.8428 146.248 23.6582 146.863 23.5762C147.479 23.4805 148.08 23.4326 148.668 23.4326C149.229 23.4326 149.81 23.4736 150.411 23.5557C151.013 23.6377 151.601 23.8154 152.175 24.0889C152.749 24.3486 153.289 24.7451 153.795 25.2783C154.314 25.7979 154.766 26.502 155.148 27.3906C155.545 28.2793 155.853 29.3867 156.071 30.7129C156.304 32.0254 156.42 33.6045 156.42 35.4502V39.8799C156.42 41.7119 156.304 43.291 156.071 44.6172C155.839 45.9434 155.524 47.0645 155.128 47.9805C154.731 48.8965 154.273 49.6416 153.754 50.2158C153.234 50.7764 152.688 51.2139 152.113 51.5283C151.539 51.8428 150.951 52.0479 150.35 52.1436C149.762 52.2529 149.194 52.3076 148.647 52.3076ZM148.688 48.3086C149.153 48.3086 149.543 48.1924 149.857 47.96C150.186 47.7139 150.445 47.3174 150.637 46.7705C150.842 46.2236 150.985 45.5059 151.067 44.6172C151.163 43.7148 151.211 42.6006 151.211 41.2744V34.3223C151.211 32.9961 151.163 31.8818 151.067 30.9795C150.985 30.0771 150.842 29.3525 150.637 28.8057C150.445 28.2451 150.186 27.8418 149.857 27.5957C149.543 27.3496 149.153 27.2266 148.688 27.2266C148.196 27.2266 147.779 27.3496 147.438 27.5957C147.109 27.8418 146.836 28.2451 146.617 28.8057C146.398 29.3525 146.241 30.0771 146.146 30.9795C146.05 31.8818 146.002 32.9961 146.002 34.3223V41.2744C146.002 42.6006 146.05 43.7148 146.146 44.6172C146.241 45.5059 146.398 46.2236 146.617 46.7705C146.836 47.3174 147.109 47.7139 147.438 47.96C147.779 48.1924 148.196 48.3086 148.688 48.3086ZM159.065 23.7607H164.008L166.038 39.0596L166.53 44.7812H166.694L167.31 39.0596L170.017 23.7607H174.385L177.174 39.0596L177.933 44.7812H178.097L178.445 39.0596L180.229 23.7607H185.069L180.496 52H175.718L172.785 36.291L172.129 31.9639H171.965L171.37 36.291L168.704 52H163.721L159.065 23.7607Z" fill="#A4D027"/>
</svg>
